# xmcd
#
# Track frame offsets:
#	150
#	15732
#	30497
#	46845
#	62495
#	78840
#	92650
#	108815
#	126390
#	145362
#	164297
#	179450
#	195830
#
# Disc length: 2835 seconds
#
# Revision: 0
# Processed by: cddbd v1.4PL0 Copyright (c) Steve Scherf et al.
# Submitted via: dBpowerAMP V4.0
#
DISCID=9c0b110d
DTITLE=Matti Esko - Luokses palaan
DYEAR=1995
DGENRE=
TTITLE0=Luokses palaan
TTITLE1=On jossain h‰n
TTITLE2=Et voinut unohtaa 
TTITLE3=Poika toisen totuuden
TTITLE4=L‰hell‰ taivasta
TTITLE5=Tulen niinkuin lupasin
TTITLE6=Sinun kirjeesi
TTITLE7=Veteen viivaa piirt‰en
TTITLE8=Syliss‰s yˆ h‰vi‰‰
TTITLE9=Miehen duuni on kest‰‰
TTITLE10=Kolme p‰iv‰‰
TTITLE11=Onnenpekka
TTITLE12=Hetki rannalla
EXTD=
EXTT0=
EXTT1=
EXTT2=
EXTT3=
EXTT4=
EXTT5=
EXTT6=
EXTT7=
EXTT8=
EXTT9=
EXTT10=
EXTT11=
EXTT12=
PLAYORDER=
